<svg width="1258" height="1268" viewBox="0 0 1258 1268" fill="none" xmlns="http://www.w3.org/2000/svg">
<mask id="path-1-inside-1_702_2" fill="white">
<path fill-rule="evenodd" clip-rule="evenodd" d="M1254.13 118.997C1258.07 115.123 1258.12 108.791 1254.25 104.856L1153.97 2.98494C1150.1 -0.950987 1143.76 -1.00095 1139.83 2.87337L402.531 728.628C402.503 728.656 402.457 728.655 402.43 728.627C402.391 728.588 402.324 728.605 402.31 728.658L402.252 728.866C402.243 728.899 402.225 728.929 402.2 728.953L401.891 729.258C401.781 729.366 401.78 729.543 401.888 729.653C401.958 729.724 401.984 729.827 401.958 729.923L363.377 868.571C361.313 875.987 368.052 882.856 375.506 880.935L514.999 844.99C515.207 844.936 515.427 844.997 515.577 845.15C515.809 845.386 516.189 845.389 516.426 845.157L1254.13 118.997Z"/>
</mask>
<path d="M516.426 845.157L475.037 803.109L516.426 845.157ZM514.999 844.99L529.722 902.123L514.999 844.99ZM363.377 868.571L420.218 884.388L363.377 868.571ZM375.506 880.935L360.784 823.802L375.506 880.935ZM401.958 729.923L345.117 714.107L401.958 729.923ZM401.891 729.258L360.501 687.212L401.891 729.258ZM402.252 728.866L459.092 744.683L402.252 728.866ZM402.2 728.953L443.59 771L402.2 728.953ZM402.31 728.658L345.469 712.841L402.31 728.658ZM402.531 728.628L361.142 686.581L402.531 728.628ZM1254.25 104.856L1296.29 63.4666L1254.25 104.856ZM1254.13 118.997L1212.74 76.9501L1254.13 118.997ZM1153.97 2.98494L1196.02 -38.4039L1153.97 2.98494ZM1139.83 2.87337L1181.22 44.9205L1139.83 2.87337ZM1111.92 44.3738L1212.2 146.244L1296.29 63.4666L1196.02 -38.4039L1111.92 44.3738ZM443.92 770.675L1181.22 44.9205L1098.44 -39.1738L361.142 686.581L443.92 770.675ZM459.092 744.683L459.15 744.475L345.469 712.841L345.412 713.049L459.092 744.683ZM443.281 771.304L443.59 771L360.811 686.907L360.501 687.212L443.281 771.304ZM420.218 884.388L458.798 745.74L345.117 714.107L306.537 852.754L420.218 884.388ZM500.277 787.856L360.784 823.802L390.229 938.069L529.722 902.123L500.277 787.856ZM1212.74 76.9501L475.037 803.109L557.815 887.204L1295.52 161.044L1212.74 76.9501ZM473.53 886.539C496.621 909.998 534.357 910.294 557.815 887.204L475.037 803.109C498.022 780.484 534.997 780.774 557.624 803.761L473.53 886.539ZM529.722 902.123C509.552 907.321 488.141 901.382 473.53 886.539L557.624 803.761C542.712 788.612 520.861 782.552 500.277 787.856L529.722 902.123ZM306.537 852.754C292.297 903.926 338.793 951.323 390.229 938.069L360.784 823.802C397.311 814.389 430.329 848.048 420.218 884.388L306.537 852.754ZM359.841 771.042C345.099 756.065 339.484 734.352 345.117 714.107L458.798 745.74C464.485 725.302 458.817 703.382 443.935 688.263L359.841 771.042ZM360.501 687.212C337.17 710.179 336.874 747.71 359.841 771.042L443.935 688.263C466.685 711.375 466.392 748.554 443.281 771.304L360.501 687.212ZM345.412 713.049C348.17 703.138 353.479 694.124 360.811 686.907L443.59 771C450.97 763.735 456.316 754.66 459.092 744.683L345.412 713.049ZM444.547 687.31C412.703 654.849 357.66 669.033 345.469 712.841L459.15 744.475C446.989 788.177 392.08 802.327 360.312 769.945L444.547 687.31ZM361.142 686.581C384.364 663.723 421.728 664.049 444.547 687.31L360.312 769.945C383.186 793.261 420.642 793.589 443.92 770.675L361.142 686.581ZM1212.2 146.244C1193.21 126.958 1193.46 95.9343 1212.74 76.9501L1295.52 161.044C1322.68 134.312 1323.03 90.6245 1296.29 63.4666L1212.2 146.244ZM1196.02 -38.4039C1169.28 -65.5618 1125.6 -65.9066 1098.44 -39.1738L1181.22 44.9205C1161.93 63.9047 1130.91 63.6598 1111.92 44.3738L1196.02 -38.4039Z" fill="#2F2F2F" mask="url(#path-1-inside-1_702_2)"/>
<line x1="1055.86" y1="96.1404" x2="1149.86" y2="190.14" stroke="#2F2F2F" stroke-width="59"/>
<path fill-rule="evenodd" clip-rule="evenodd" d="M352 313C352 292.565 335.435 276 315 276H89H37C16.5655 276 0 292.565 0 313V365V1179V1231C0 1251.43 16.5655 1268 37 1268H89H855H907C927.435 1268 944 1251.43 944 1231V1179V830C944 809.565 927.435 793 907 793H892C871.565 793 855 809.565 855 830V1142C855 1162.43 838.435 1179 818 1179H126C105.565 1179 89 1162.43 89 1142V402C89 381.565 105.565 365 126 365H315C335.435 365 352 348.435 352 328V313Z" fill="#2F2F2F"/>
</svg>
