<svg width="1180" height="1243" viewBox="0 0 1180 1243" fill="none" xmlns="http://www.w3.org/2000/svg">
<path d="M979.999 313.004L1016.04 286.897L1014.42 284.665L1012.54 282.65L979.999 313.004ZM1064.98 483.943C1089.25 487.821 1112.06 471.291 1115.94 447.022L1179.14 51.5391C1183.02 27.2703 1166.49 4.45286 1142.22 0.574847C1117.95 -3.30316 1095.13 13.2268 1091.25 37.4956L1035.08 389.036L683.539 332.862C659.27 328.984 636.453 345.514 632.575 369.782C628.697 394.051 645.227 416.869 669.496 420.747L1064.98 483.943ZM836.56 249.43C860.689 263.52 888.097 286.372 910.619 307.146C921.603 317.278 930.918 326.44 937.465 333.048C940.731 336.346 943.291 338.989 945.006 340.778C945.863 341.672 946.508 342.351 946.923 342.789C947.13 343.009 947.28 343.168 947.37 343.264C947.415 343.312 947.445 343.344 947.46 343.36C947.467 343.368 947.471 343.372 947.47 343.371C947.47 343.371 947.469 343.37 947.467 343.368C947.466 343.367 947.464 343.364 947.463 343.364C947.461 343.361 947.458 343.358 979.999 313.004C1012.54 282.65 1012.54 282.646 1012.53 282.643C1012.53 282.641 1012.53 282.637 1012.52 282.634C1012.52 282.628 1012.51 282.62 1012.5 282.612C1012.49 282.595 1012.47 282.574 1012.44 282.548C1012.4 282.498 1012.33 282.431 1012.26 282.347C1012.1 282.181 1011.88 281.949 1011.6 281.656C1011.05 281.07 1010.26 280.238 1009.25 279.184C1007.23 277.078 1004.33 274.084 1000.69 270.409C993.42 263.072 983.131 252.951 970.962 241.726C947.179 219.788 914.087 191.639 881.439 172.574L836.56 249.43ZM943.961 339.111L1035.96 466.107L1108.04 413.893L1016.04 286.897L943.961 339.111Z" fill="#2F2F2F"/>
<path fill-rule="evenodd" clip-rule="evenodd" d="M1067 665C1067 935.067 848.067 1154 578 1154C307.933 1154 89 935.067 89 665C89 394.933 307.933 176 578 176C781.376 176 955.754 300.156 1029.47 476.808C1035.04 477.888 1055.89 481.219 1084 477.001C1102.35 474.249 1110.91 460.747 1114.83 450.35C1029.61 237.414 821.371 87 578 87C258.779 87 0 345.779 0 665C0 984.221 258.779 1243 578 1243C897.221 1243 1156 984.221 1156 665C1156 612.893 1149.1 562.396 1136.18 514.373L1047 526.144C1060.02 570.161 1067 616.765 1067 665Z" fill="#2F2F2F"/>
</svg>
